<?xml version="1.0" encoding="utf-8"?>
<!-- Generator: Adobe Illustrator 26.2.1, SVG Export Plug-In . SVG Version: 6.00 Build 0)  -->
<svg version="1.1" id="Layer_1" xmlns="http://www.w3.org/2000/svg" xmlns:xlink="http://www.w3.org/1999/xlink" x="0px" y="0px"
	 viewBox="0 0 300 180" style="enable-background:new 0 0 300 180;" xml:space="preserve">
<style type="text/css">
	.st0{fill-rule:evenodd;clip-rule:evenodd;fill:#000001;}
</style>
<g>
	<path class="st0" d="M112.03,44.89l0,24.49c0.04,1.32-0.53,2.59-1.55,3.44l-10.74,6.6c-2.69,1.57-5.08,3.6-7.05,6.01
		c-2.54,3.1-3.73,7.1-3.28,11.09l0.01,39.69c0.25,5.36,3.06,10.28,7.55,13.23c4.6,3.32,10.4,4.52,15.95,3.3
		c0.95-0.21,1.89-0.49,2.81-0.83h22.66v-16.01h-9.35V43.74c0.22-9.03-5.94-15.09-14.11-16.46c-7.56-1.26-13.16-0.5-19.13,3.46
		c-4.1,2.58-6.7,6.98-6.99,11.82l-0.01,31.58h16.66V45.08c0-0.46,0.18-0.89,0.5-1.22c1.4-1.45,3.57-1.59,5.18-0.56
		C111.67,43.65,112.01,44.25,112.03,44.89L112.03,44.89z M114.8,44.86c-0.03-1.57-0.85-3.02-2.17-3.87
		c-2.7-1.73-6.32-1.47-8.66,0.95c-0.82,0.84-1.28,1.97-1.28,3.15l0,26.28H91.56l0.01-28.65c0.24-3.97,2.39-7.57,5.76-9.68
		c5.37-3.54,10.33-4.2,17.15-3.04c6.83,1.17,12.01,6.02,11.81,13.66v94.99h9.35v10.48h-19.05l0.02-0.62
		c-6.2,3.08-12.6,2.4-18.06-1.36c-3.78-2.46-6.14-6.58-6.35-11.08l0-39.72c-0.41-3.29,0.55-6.61,2.66-9.18
		c1.77-2.16,3.91-3.98,6.33-5.39l10.92-6.7c1.78-1.38,2.79-3.53,2.72-5.79L114.8,44.86L114.8,44.86z"/>
	<path class="st0" d="M35.08,44.76c0.63-0.63,1.45-1.03,2.33-1.14c1.56-0.21,3,0.85,3.28,2.39V151.9h16.69V44.77
		c1.59-1.62,3.47-1.11,5.26-0.54c0.24,0.06,0.41,0.26,0.45,0.51V151.9h24.29l0.16-16.01h-7.77V44.25
		c0.07-8.13-4.32-14.47-12.56-16.29c-2.19-0.5-4.44-0.75-6.69-0.74c-3.83-0.19-7.65,0.64-11.06,2.4
		c-4.79-3.07-12.13-3.48-17.26-1.44H11.03v15.8h7.29V151.9h16.75V44.76L35.08,44.76z M32.31,43.77v105.36H21.09V41.22H13.8V30.95
		h18.22l0,0.35c4.9-2.56,12.87-2.09,17.25,1.62c3.34-2.11,7.25-3.14,11.19-2.93c2.07-0.02,4.14,0.21,6.15,0.67
		c6.94,1.54,10.46,6.72,10.4,13.56v94.43h7.74l-0.11,10.48H65.85V44.64c-0.04-1.61-1.14-2.55-2.52-3.09
		c-3.03-1.17-6.78-0.77-8.71,2.29v105.3H43.45V45.8c0-0.01,0-0.03,0-0.04c-0.41-3.11-3.27-5.3-6.38-4.89
		C35.14,41.12,33.41,42.18,32.31,43.77L32.31,43.77z"/>
	<path class="st0" d="M180.01,46.58c0.2-5.21-1.76-10.27-5.42-13.98l-0.28-0.27c-7.41-6.73-19.27-6.67-27.2-1.04
		c-4.15,2.89-6.65,7.6-6.73,12.66l0,87.38c-1.05,10.87,6.8,20.58,17.65,21.82c12.35,1.43,22-8.47,21.98-19.94l0-33.64h-16.66v33.03
		c-0.05,1.06-0.53,2.06-1.33,2.77c-1,0.93-3.3,1.87-4.17,0.22c-0.63-1.4-0.91-2.94-0.83-4.48l0.01-87.15
		c1.11-0.61,2.38-0.88,3.64-0.78c0.37,0.04,1.71,0.32,1.9,0.6c0.58,0.87,0.77,3.5,0.77,4.8l0,27.94h16.66V46.58L180.01,46.58z
		 M177.25,46.52v27.23h-11.14V48.56c-0.01-1.24-0.11-2.48-0.3-3.7c-0.13-0.91-0.44-1.78-0.9-2.57c-0.79-1.26-2.6-1.72-3.94-1.87
		c-2.28-0.25-6.6,0.64-6.7,3.31l0,87.21c-0.08,3.04,0.64,7.51,4.16,8.2c3.82,0.74,7.61-2.85,7.68-6.5v-30.32h11.14l0,30.88
		c0,5.05-2.17,9.86-5.96,13.2c-3.56,3.09-8.25,4.54-12.94,3.99c-9.4-1.07-16.19-9.52-15.2-18.94l0-87.48
		c0.06-4.18,2.13-8.06,5.56-10.44c6.91-4.9,17.28-4.99,23.75,0.84l0.16,0.15C175.76,37.72,177.43,42.06,177.25,46.52L177.25,46.52z"
		/>
	<path class="st0" d="M206.08,82.25c0.04-0.55,0.29-1.06,0.69-1.43c1.42-1.35,3.55-1.91,5.28-0.79c0.39,0.53,0.45,1.77,0.44,2.45
		l-0.01,69.42H238v-16.01h-8.19V82.02c0.21-11.95-8.99-19.62-19.72-19.04c-1.35,0.05-2.69,0.22-4.02,0.51V27.68h-25.05v16.3h7.73
		V151.9h17.33V82.25L206.08,82.25z M203.31,82.17v66.97h-11.8V41.22h-7.73V30.44h19.53v36.77c2.23-0.95,4.54-1.34,6.93-1.48
		c9.17-0.5,17.01,5.93,16.81,16.23v56.69h8.19v10.48h-20l0-66.53c0.03-1.54-0.18-3.63-1.35-4.65c-2.62-2.28-6.77-1.3-9.02,0.84
		C203.94,79.67,203.38,80.88,203.31,82.17L203.31,82.17z"/>
	<path class="st0" d="M255.06,135.89v16.01h33.91v-16.01h-8.62V27.68h-16.99c-0.33,6.28-0.88,12.55-1.63,18.8
		c-0.6,5.02-2.44,8.28-5.56,12.34v12.64h6.22v64.44H255.06L255.06,135.89z M257.82,138.66h7.34V68.69h-6.22v-8.94
		c3.11-4.03,4.94-7.9,5.55-12.96c0.67-5.43,1.17-10.89,1.49-16.36h11.62v108.21h8.62v10.48h-28.38V138.66L257.82,138.66z"/>
	<path class="st0" d="M114.8,136.73V85.42l-8.59,5.39c-1.95,1.36-3.06,3.63-2.94,6l0,33.85c-0.11,2.13,0.31,4.26,1.23,6.2
		c1.65,3.23,6.01,3.2,8.84,2.02C114.22,138.52,114.79,137.67,114.8,136.73L114.8,136.73z M112.03,136.42
		c-1.14,0.43-2.38,0.52-3.58,0.28c-2.1-0.48-2.48-4.03-2.43-5.9l0.01-34.06c-0.09-1.42,0.56-2.79,1.71-3.63l4.29-2.69V136.42
		L112.03,136.42z"/>
	<path class="st0" d="M117.56,80.43v56.31c0.06,4.64-5.9,6.48-10.4,5.33c-5.17-1.32-6.7-6.21-6.65-11.55V96.87
		c0.03-3.4,1.3-6.56,4.18-8.37L117.56,80.43L117.56,80.43z M99.92,68.61V45.09c-0.04-4.13,3.53-7.34,7.63-7.89
		c5.01-0.67,9.97,2.58,10.01,7.64v24.38c-0.14,3.37-1.18,6.19-3.92,8.15l-11.07,6.8c-4.6,2.82-8.39,6.67-7.64,12.01v39.77
		c0.01,7.58,9.45,13.33,16.78,11.39c2.81-0.75,5.96-2.12,7.85-4.33l-0.13,3.37h13.42v-4.95h-9.35V43.59
		c-0.07-8.19-6.1-11.54-15.64-11.32c-4.74,0.11-13.36,3.58-13.55,10.61v25.72H99.92L99.92,68.61z M16.56,33.71v4.75h7.29v107.91h5.7
		V42.99c1.48-2.58,4.2-4.6,7.16-4.85c4.83-0.42,9.08,2.68,9.5,7.51v100.72h5.64V43.11c1.16-2.22,2.93-3.71,5.32-4.47
		c4.81-1.53,11.49,0.89,11.44,5.94v101.79H81.9l0.05-4.95h-7.71V44.2c0.04-7.53-4.55-11.43-13.85-11.44
		c-4.54-0.01-8.11,0.97-11.45,3.83c-2.86-3.82-7.37-4.18-10.74-4.06c-6.68,0.24-8.84,5.06-9,5.19l0.03-4.01H16.56L16.56,33.71z
		 M174.48,70.99V46.46c-0.06-10.12-7.52-14.16-15.62-13.71c-6.5,0.36-12.99,4.76-12.96,11.27v87.59
		c-0.91,7.95,4.81,15.13,12.76,16.04c7.95,0.91,15.52-4.91,15.82-14.46v-28.1h-5.61v27.61c-0.06,5.67-5.99,10.46-11.03,9.15
		c-5.03-1.31-6.39-5.85-6.34-11.06V43.65c0.04-4.26,5.6-6.57,9.82-5.97c5.05,0.73,7.48,2.95,7.55,10.89v22.42H174.48L174.48,70.99z
		 M186.55,33.21v5.25h7.73v107.91h6.27V82.1c0.04-4.22,4.29-7.88,8.5-8.15c4.65-0.3,9.14,1.61,8.95,8.77v63.65h14.47v-4.95h-8.19
		V81.91c0-9.54-6.91-13.74-13.9-13.41c-3.68,0.17-7.48,1.24-9.84,4.06V33.21H186.55L186.55,33.21z M260.58,141.42v4.95h22.86v-4.95
		h-8.62V33.21h-6.26c-1.11,13.36-1.13,20-6.86,27.49v5.23h6.22v75.49H260.58L260.58,141.42z"/>
</g>
</svg>
